<svg width="88" height="88" viewBox="0 0 88 88" fill="none" xmlns="http://www.w3.org/2000/svg">
<circle cx="44" cy="44" r="44" fill="#FFBD13"/>
<path d="M10.71 44.3949H18.48V47.4849H10.71V44.3949ZM26.2814 41.1849C26.7614 41.0849 27.2214 41.0149 27.6614 40.9749C28.1014 40.9249 28.5264 40.8999 28.9364 40.8999C30.0764 40.8999 31.0814 41.0699 31.9514 41.4099C32.8214 41.7499 33.5514 42.2199 34.1414 42.8199C34.7314 43.4199 35.1764 44.1249 35.4764 44.9349C35.7764 45.7349 35.9264 46.5999 35.9264 47.5299C35.9264 48.6799 35.7214 49.7299 35.3114 50.6799C34.9114 51.6299 34.3514 52.4449 33.6314 53.1249C32.9114 53.7949 32.0564 54.3149 31.0664 54.6849C30.0864 55.0549 29.0164 55.2399 27.8564 55.2399C27.1764 55.2399 26.5314 55.1699 25.9214 55.0299C25.3114 54.8899 24.7364 54.7049 24.1964 54.4749C23.6664 54.2349 23.1714 53.9649 22.7114 53.6649C22.2614 53.3549 21.8564 53.0299 21.4964 52.6899L22.6364 51.1149C22.8764 50.7749 23.1914 50.6049 23.5814 50.6049C23.8314 50.6049 24.0864 50.6849 24.3464 50.8449C24.6064 51.0049 24.9014 51.1799 25.2314 51.3699C25.5714 51.5599 25.9664 51.7349 26.4164 51.8949C26.8764 52.0549 27.4264 52.1349 28.0664 52.1349C28.7464 52.1349 29.3464 52.0249 29.8664 51.8049C30.3864 51.5849 30.8164 51.2799 31.1564 50.8899C31.5064 50.4899 31.7664 50.0199 31.9364 49.4799C32.1164 48.9299 32.2064 48.3349 32.2064 47.6949C32.2064 46.5149 31.8614 45.5949 31.1714 44.9349C30.4914 44.2649 29.4814 43.9299 28.1414 43.9299C27.1114 43.9299 26.0564 44.1199 24.9764 44.4999L22.6664 43.8399L24.4664 33.3099H35.1764V34.8849C35.1764 35.4149 35.0114 35.8449 34.6814 36.1749C34.3514 36.5049 33.7914 36.6699 33.0014 36.6699H27.0464L26.2814 41.1849ZM43.6838 41.1849C44.1638 41.0849 44.6238 41.0149 45.0638 40.9749C45.5038 40.9249 45.9288 40.8999 46.3388 40.8999C47.4788 40.8999 48.4838 41.0699 49.3538 41.4099C50.2238 41.7499 50.9538 42.2199 51.5438 42.8199C52.1338 43.4199 52.5788 44.1249 52.8788 44.9349C53.1788 45.7349 53.3288 46.5999 53.3288 47.5299C53.3288 48.6799 53.1238 49.7299 52.7138 50.6799C52.3138 51.6299 51.7538 52.4449 51.0338 53.1249C50.3138 53.7949 49.4588 54.3149 48.4688 54.6849C47.4888 55.0549 46.4188 55.2399 45.2588 55.2399C44.5788 55.2399 43.9338 55.1699 43.3238 55.0299C42.7138 54.8899 42.1388 54.7049 41.5988 54.4749C41.0688 54.2349 40.5738 53.9649 40.1138 53.6649C39.6638 53.3549 39.2588 53.0299 38.8988 52.6899L40.0388 51.1149C40.2788 50.7749 40.5938 50.6049 40.9838 50.6049C41.2338 50.6049 41.4888 50.6849 41.7488 50.8449C42.0088 51.0049 42.3038 51.1799 42.6338 51.3699C42.9738 51.5599 43.3688 51.7349 43.8188 51.8949C44.2788 52.0549 44.8288 52.1349 45.4688 52.1349C46.1488 52.1349 46.7488 52.0249 47.2688 51.8049C47.7888 51.5849 48.2188 51.2799 48.5588 50.8899C48.9088 50.4899 49.1688 50.0199 49.3388 49.4799C49.5188 48.9299 49.6088 48.3349 49.6088 47.6949C49.6088 46.5149 49.2638 45.5949 48.5738 44.9349C47.8938 44.2649 46.8838 43.9299 45.5438 43.9299C44.5138 43.9299 43.4588 44.1199 42.3788 44.4999L40.0688 43.8399L41.8688 33.3099H52.5788V34.8849C52.5788 35.4149 52.4138 35.8449 52.0838 36.1749C51.7538 36.5049 51.1938 36.6699 50.4038 36.6699H44.4488L43.6838 41.1849ZM66.1711 38.5599C66.1711 39.3799 66.0311 40.1199 65.7511 40.7799C65.4811 41.4399 65.1161 42.0049 64.6561 42.4749C64.1961 42.9349 63.6611 43.2899 63.0511 43.5399C62.4411 43.7899 61.8061 43.9149 61.1461 43.9149C60.4261 43.9149 59.7611 43.7899 59.1511 43.5399C58.5411 43.2899 58.0111 42.9349 57.5611 42.4749C57.1211 42.0049 56.7761 41.4399 56.5261 40.7799C56.2761 40.1199 56.1511 39.3799 56.1511 38.5599C56.1511 37.7199 56.2761 36.9599 56.5261 36.2799C56.7761 35.5999 57.1211 35.0249 57.5611 34.5549C58.0111 34.0849 58.5411 33.7249 59.1511 33.4749C59.7611 33.2149 60.4261 33.0849 61.1461 33.0849C61.8661 33.0849 62.5311 33.2149 63.1411 33.4749C63.7611 33.7249 64.2961 34.0849 64.7461 34.5549C65.1961 35.0249 65.5461 35.5999 65.7961 36.2799C66.0461 36.9599 66.1711 37.7199 66.1711 38.5599ZM63.3211 38.5599C63.3211 37.9799 63.2611 37.4949 63.1411 37.1049C63.0311 36.7149 62.8761 36.3999 62.6761 36.1599C62.4861 35.9199 62.2561 35.7499 61.9861 35.6499C61.7261 35.5399 61.4461 35.4849 61.1461 35.4849C60.8461 35.4849 60.5661 35.5399 60.3061 35.6499C60.0461 35.7499 59.8211 35.9199 59.6311 36.1599C59.4511 36.3999 59.3061 36.7149 59.1961 37.1049C59.0861 37.4949 59.0311 37.9799 59.0311 38.5599C59.0311 39.1199 59.0861 39.5899 59.1961 39.9699C59.3061 40.3399 59.4511 40.6399 59.6311 40.8699C59.8211 41.0999 60.0461 41.2649 60.3061 41.3649C60.5661 41.4649 60.8461 41.5149 61.1461 41.5149C61.4461 41.5149 61.7261 41.4649 61.9861 41.3649C62.2561 41.2649 62.4861 41.0999 62.6761 40.8699C62.8761 40.6399 63.0311 40.3399 63.1411 39.9699C63.2611 39.5899 63.3211 39.1199 63.3211 38.5599ZM73.3861 33.8949C73.5161 33.7449 73.6661 33.6099 73.8361 33.4899C74.0161 33.3699 74.2661 33.3099 74.5861 33.3099H77.2861L61.1761 54.4449C61.0461 54.6049 60.8911 54.7399 60.7111 54.8499C60.5311 54.9499 60.3111 54.9999 60.0511 54.9999H57.2911L73.3861 33.8949ZM78.4261 49.8999C78.4261 50.7199 78.2861 51.4599 78.0061 52.1199C77.7361 52.7799 77.3711 53.3449 76.9111 53.8149C76.4511 54.2749 75.9161 54.6349 75.3061 54.8949C74.6961 55.1449 74.0611 55.2699 73.4011 55.2699C72.6811 55.2699 72.0161 55.1449 71.4061 54.8949C70.7961 54.6349 70.2661 54.2749 69.8161 53.8149C69.3761 53.3449 69.0311 52.7799 68.7811 52.1199C68.5311 51.4599 68.4061 50.7199 68.4061 49.8999C68.4061 49.0599 68.5311 48.2999 68.7811 47.6199C69.0311 46.9399 69.3761 46.3649 69.8161 45.8949C70.2661 45.4249 70.7961 45.0649 71.4061 44.8149C72.0161 44.5549 72.6811 44.4249 73.4011 44.4249C74.1211 44.4249 74.7861 44.5549 75.3961 44.8149C76.0161 45.0649 76.5461 45.4249 76.9861 45.8949C77.4361 46.3649 77.7861 46.9399 78.0361 47.6199C78.2961 48.2999 78.4261 49.0599 78.4261 49.8999ZM75.5611 49.8999C75.5611 49.3199 75.5061 48.8349 75.3961 48.4449C75.2861 48.0549 75.1311 47.7399 74.9311 47.4999C74.7411 47.2599 74.5111 47.0899 74.2411 46.9899C73.9811 46.8799 73.7011 46.8249 73.4011 46.8249C73.1011 46.8249 72.8211 46.8799 72.5611 46.9899C72.3011 47.0899 72.0761 47.2599 71.8861 47.4999C71.6961 47.7399 71.5461 48.0549 71.4361 48.4449C71.3361 48.8349 71.2861 49.3199 71.2861 49.8999C71.2861 50.4599 71.3361 50.9299 71.4361 51.3099C71.5461 51.6899 71.6961 51.9949 71.8861 52.2249C72.0761 52.4549 72.3011 52.6199 72.5611 52.7199C72.8211 52.8199 73.1011 52.8699 73.4011 52.8699C73.7011 52.8699 73.9811 52.8199 74.2411 52.7199C74.5111 52.6199 74.7411 52.4549 74.9311 52.2249C75.1311 51.9949 75.2861 51.6899 75.3961 51.3099C75.5061 50.9299 75.5611 50.4599 75.5611 49.8999Z" fill="white"/>
</svg>
